<svg xmlns="http://www.w3.org/2000/svg" width="45.967" height="31.5" viewBox="0 0 45.967 31.5">
  <path id="icon_truck" d="M1.343,16.685l4.2-4.113A4.649,4.649,0,0,1,8.8,11.257h2.693V4.5a2.272,2.272,0,0,1,2.3-2.25H43.669a2.272,2.272,0,0,1,2.3,2.25V28.125a5.685,5.685,0,0,1-5.746,5.625,5.776,5.776,0,0,1-4.6-2.278,5.756,5.756,0,0,1-4.6,2.278,5.685,5.685,0,0,1-5.746-5.625A5.805,5.805,0,0,1,25.4,27H13.675a5.294,5.294,0,0,1,.115,1.125A5.685,5.685,0,0,1,8.044,33.75,5.685,5.685,0,0,1,2.3,28.125,5.806,5.806,0,0,1,2.413,27H1.149A1.141,1.141,0,0,1,0,25.875V19.863A4.438,4.438,0,0,1,1.343,16.685Zm38.878,13.69a2.251,2.251,0,1,0-2.3-2.25A2.281,2.281,0,0,0,40.221,30.375Zm-9.193,0a2.251,2.251,0,1,0-2.3-2.25A2.281,2.281,0,0,0,31.028,30.375ZM11.492,14.625H8.8a1.153,1.153,0,0,0-.812.33L4.877,18h6.615ZM8.044,30.375a2.251,2.251,0,1,0-2.3-2.25A2.281,2.281,0,0,0,8.044,30.375Z" transform="translate(0 -2.25)"/>
</svg>
